<!-- icon666.com - MILLIONS vector ICONS FREE --><svg viewBox="0 0 64 64" xmlns="http://www.w3.org/2000/svg" xmlns:xlink="http://www.w3.org/1999/xlink"><linearGradient id="gradient_ice" gradientUnits="userSpaceOnUse" x1="9.109" x2="63.103" y1="67.266" y2="3.385"><stop offset="0" stop-color="#fff200"></stop><stop offset="1" stop-color="#cd118c"></stop></linearGradient><linearGradient id="gradient_ice-2" x1="5.047" x2="59.041" xlink:href="#gradient_ice" y1="63.832" y2="-.049"></linearGradient><linearGradient id="gradient_ice-3" x1="18.573" x2="72.568" xlink:href="#gradient_ice" y1="75.266" y2="11.385"></linearGradient><linearGradient id="gradient_ice-4" x1="-10.258" x2="43.737" xlink:href="#gradient_ice" y1="50.897" y2="-12.984"></linearGradient><linearGradient id="gradient_ice-5" x1="-8.286" x2="45.709" xlink:href="#gradient_ice" y1="52.563" y2="-11.318"></linearGradient><linearGradient id="gradient_ice-6" x1="-6.314" x2="47.681" xlink:href="#gradient_ice" y1="54.23" y2="-9.651"></linearGradient><linearGradient id="gradient_ice-7" x1="-3.258" x2="50.736" xlink:href="#gradient_ice" y1="56.813" y2="-7.068"></linearGradient><linearGradient id="gradient_ice-8" x1="-1.286" x2="52.708" xlink:href="#gradient_ice" y1="58.48" y2="-5.401"></linearGradient><linearGradient id="gradient_ice-9" x1=".686" x2="54.68" xlink:href="#gradient_ice" y1="60.146" y2="-3.735"></linearGradient><g id="book_store-shop-building-bookshop" data-name="book store-shop-building-bookshop"><path d="m61 56h-1v-27.03a4.939 4.939 0 0 0 1-2.97v-4a1 1 0 0 0 -1-1v-4a1 1 0 0 0 -1-1h-10v-10a1 1 0 0 0 -1-1h-3v-2a1 1 0 0 0 -1-1h-8a4.994 4.994 0 0 0 -4 2.03 4.994 4.994 0 0 0 -4-2.03h-8a1 1 0 0 0 -1 1v2h-3a1 1 0 0 0 -1 1v10h-10a1 1 0 0 0 -1 1v4a1 1 0 0 0 -1 1v4a4.939 4.939 0 0 0 1 2.97v27.03h-1a1 1 0 0 0 -1 1v4a1 1 0 0 0 1 1h58a1 1 0 0 0 1-1v-4a1 1 0 0 0 -1-1zm-8-23h-11a1 1 0 0 0 -1 1v22h-35v-25.42a4.941 4.941 0 0 0 2 .42 4.994 4.994 0 0 0 4-2.03 5.079 5.079 0 0 0 .47.57 4.975 4.975 0 0 0 7.53-.57 4.956 4.956 0 0 0 8 0 4.956 4.956 0 0 0 8 0 4.956 4.956 0 0 0 8 0 4.956 4.956 0 0 0 8 0 4.994 4.994 0 0 0 4 2.03 4.941 4.941 0 0 0 2-.42v25.42h-4v-22a1 1 0 0 0 -1-1zm-1 2v21h-9v-21zm-31-9h6a3 3 0 0 1 -6 0zm8 0h6a3 3 0 0 1 -6 0zm8 0h6a3 3 0 0 1 -6 0zm19 3a3.009 3.009 0 0 1 -3-3v-3h6v3a3.009 3.009 0 0 1 -3 3zm-7-11h9v3h-9zm0 7v-2h2v3a3 3 0 0 1 -6 0h3a1 1 0 0 0 1-1zm-16-18a3.009 3.009 0 0 1 3-3h7v16h-10zm-12-3h7a3.009 3.009 0 0 1 3 3v13h-10zm-4 3h2v14a1 1 0 0 0 1 1h24a1 1 0 0 0 1-1v-14h2v17h-30zm-1 19h3a3 3 0 1 1 -6 0v-3h2v2a1 1 0 0 0 1 1zm-10-8h9v3h-9zm-1 5h6v3a3 3 0 0 1 -6 0zm55 37h-56v-2h56z" fill="url(#gradient_ice)"></path><path d="m36 33h-25a1 1 0 0 0 -1 1v16a1 1 0 0 0 1 1h25a1 1 0 0 0 1-1v-16a1 1 0 0 0 -1-1zm-1 16h-23v-14h23z" fill="url(#gradient_ice-2)"></path><path d="m44 43h2v2h-2z" fill="url(#gradient_ice-3)"></path><path d="m23 7h6v2h-6z" fill="url(#gradient_ice-4)"></path><path d="m23 11h6v2h-6z" fill="url(#gradient_ice-5)"></path><path d="m23 15h6v2h-6z" fill="url(#gradient_ice-6)"></path><path d="m35 7h6v2h-6z" fill="url(#gradient_ice-7)"></path><path d="m35 11h6v2h-6z" fill="url(#gradient_ice-8)"></path><path d="m35 15h6v2h-6z" fill="url(#gradient_ice-9)"></path></g></svg>